# Blender v2.93.0 OBJ File: ''
# www.blender.org
mtllib StonePlatform.mtl
o StonePlatform_Cylinder
v 0.000000 0.036400 -0.536211
v 0.419227 0.036400 -0.334322
v 0.522767 0.036400 0.119318
v 0.232653 0.036400 0.483110
v -0.232653 0.036400 0.483110
v -0.522767 0.036400 0.119318
v -0.419227 0.036400 -0.334322
v 0.000000 -0.038844 -0.468623
v 0.000000 -0.005623 -0.536211
v 0.366384 -0.038844 -0.292181
v 0.419227 -0.005623 -0.334322
v 0.456873 -0.038844 0.104278
v 0.522767 -0.005623 0.119318
v 0.203328 -0.038844 0.422214
v 0.232653 -0.005623 0.483110
v -0.203328 -0.038844 0.422214
v -0.232653 -0.005623 0.483110
v -0.456873 -0.038844 0.104278
v -0.522767 -0.005623 0.119318
v -0.366384 -0.038844 -0.292181
v -0.419227 -0.005623 -0.334322
vt 0.142857 0.720755
vt 0.142857 1.000000
vt 0.000000 1.000000
vt 0.000000 0.720755
vt 0.714286 0.720755
vt 0.714286 1.000000
vt 0.571429 1.000000
vt 0.571429 0.720755
vt 0.428571 1.000000
vt 0.428571 0.720755
vt 0.285714 1.000000
vt 0.285714 0.720755
vt 0.437640 0.399638
vt 0.250000 0.490000
vt 0.062360 0.399638
vt 0.016017 0.196595
vt 0.145868 0.033767
vt 0.354132 0.033767
vt 0.483983 0.196595
vt 0.857143 0.720755
vt 0.857143 1.000000
vt 1.000000 0.720755
vt 1.000000 1.000000
vt 0.866146 0.500000
vt 0.990996 0.500000
vt 0.723289 0.500000
vt 0.848139 0.500000
vt 0.580432 0.500000
vt 0.705282 0.500000
vt 0.437575 0.500000
vt 0.562425 0.500000
vt 0.294718 0.500000
vt 0.419568 0.500000
vt 0.151861 0.500000
vt 0.276711 0.500000
vt 0.009004 0.500000
vt 0.133854 0.500000
vt 0.750000 0.459748
vt 0.913988 0.380776
vt 0.954489 0.203327
vt 0.841006 0.061023
vt 0.658994 0.061023
vt 0.545511 0.203327
vt 0.586012 0.380776
vn -0.4339 0.0000 -0.9010
vn 0.7818 0.0000 0.6235
vn 0.0000 0.0000 1.0000
vn -0.7818 0.0000 0.6235
vn -0.9749 0.0000 -0.2225
vn 0.0000 1.0000 0.0000
vn 0.9749 0.0000 -0.2225
vn 0.4339 0.0000 -0.9010
vn 0.2078 -0.8779 -0.4315
vn 0.4669 -0.8779 -0.1066
vn 0.3744 -0.8779 0.2986
vn 0.0000 -0.8779 0.4789
vn -0.3744 -0.8779 0.2986
vn -0.4669 -0.8779 -0.1066
vn -0.2078 -0.8779 -0.4315
vn 0.0000 -1.0000 0.0000
usemtl Material.001
s off
f 21/1/1 7/2/1 1/3/1 9/4/1
f 13/5/2 3/6/2 4/7/2 15/8/2
f 15/8/3 4/7/3 5/9/3 17/10/3
f 17/10/4 5/9/4 6/11/4 19/12/4
f 19/12/5 6/11/5 7/2/5 21/1/5
f 2/13/6 1/14/6 7/15/6 6/16/6 5/17/6 4/18/6 3/19/6
f 11/20/7 2/21/7 3/6/7 13/5/7
f 9/22/8 1/23/8 2/21/8 11/20/8
f 9/22/9 11/20/9 10/24/9 8/25/9
f 11/20/10 13/5/10 12/26/10 10/27/10
f 13/5/11 15/8/11 14/28/11 12/29/11
f 15/8/12 17/10/12 16/30/12 14/31/12
f 17/10/13 19/12/13 18/32/13 16/33/13
f 19/12/14 21/1/14 20/34/14 18/35/14
f 21/1/15 9/4/15 8/36/15 20/37/15
f 8/38/16 10/39/16 12/40/16 14/41/16 16/42/16 18/43/16 20/44/16
