# Blender v2.93.0 OBJ File: ''
# www.blender.org
mtllib LargeRock.mtl
o Large_Rock_Icosphere.001
v -0.243361 -0.004150 -0.254832
v 0.115245 -0.008014 -0.309703
v 0.342723 -0.002487 0.130923
v 0.021158 -0.002079 0.433316
v -0.358110 -0.001649 0.159929
v -0.006256 0.340544 -0.230887
v 0.266958 0.289358 -0.118237
v 0.137898 0.323573 0.285771
v -0.180408 0.325303 0.281777
v -0.243037 0.288722 -0.016746
v -0.007913 0.517124 0.023173
vt 0.272728 0.157461
vt 1.000000 0.157461
vt 0.818182 0.157461
vt 0.636364 0.157461
vt 0.454546 0.157461
vt 0.363637 0.314921
vt 0.090910 0.157461
vt 0.181819 0.314921
vt 0.909091 0.314921
vt 0.727273 0.314921
vt 0.545455 0.314921
vt 0.000000 0.314921
vt 0.272728 0.472382
vt 0.090910 0.472382
vt 0.818182 0.472382
vt 0.636364 0.472382
vt 0.454546 0.472382
vn -0.0029 -1.0000 0.0069
vn -0.9412 0.2138 -0.2617
vn -0.1473 0.1690 -0.9745
vn 0.8783 -0.1574 -0.4515
vn 0.6827 0.0841 0.7259
vn -0.5847 0.0155 0.8111
vn -0.6430 0.4835 -0.5939
vn 0.4121 0.3352 -0.8472
vn 0.8693 0.4315 0.2411
vn -0.0092 0.4154 0.9096
vn -0.8908 0.4343 0.1337
vn -0.5725 0.6715 -0.4705
vn 0.3623 0.7665 -0.5304
vn 0.6764 0.7200 0.1551
vn -0.0031 0.8041 0.5944
vn -0.7007 0.7109 0.0599
usemtl Material
s off
f 1/1/1 2/2/1 3/3/1 4/4/1 5/5/1
f 1/1/2 5/5/2 10/6/2
f 2/7/3 1/1/3 6/8/3
f 3/3/4 2/2/4 7/9/4
f 4/4/5 3/3/5 8/10/5
f 5/5/6 4/4/6 9/11/6
f 1/1/7 10/6/7 6/8/7
f 2/7/8 6/8/8 7/12/8
f 3/3/9 7/9/9 8/10/9
f 4/4/10 8/10/10 9/11/10
f 5/5/11 9/11/11 10/6/11
f 6/8/12 10/6/12 11/13/12
f 7/12/13 6/8/13 11/14/13
f 8/10/14 7/9/14 11/15/14
f 9/11/15 8/10/15 11/16/15
f 10/6/16 9/11/16 11/17/16
