# Blender v2.93.0 OBJ File: 'Island02.blend'
# www.blender.org
mtllib Island03.mtl
o Island03_Cylinder
v -0.034376 0.177355 -0.138647
v -0.000000 1.373185 -0.719886
v 0.073116 0.177355 -0.122342
v 0.420688 1.353973 -0.509036
v 0.137595 0.177355 -0.034803
v 0.605939 1.365053 0.000000
v 0.121289 0.177355 0.072689
v 0.420688 1.347636 0.509036
v 0.033751 0.177355 0.137167
v -0.000000 1.364260 0.719886
v -0.073741 0.177355 0.120861
v -0.420688 1.373185 0.509036
v -0.138220 0.177355 0.033323
v -0.594943 1.334399 -0.000000
v -0.121914 0.177355 -0.074169
v -0.420688 1.373185 -0.509036
v -0.015473 0.608404 -0.268396
v 0.056824 0.968504 -0.475923
v 0.375937 0.968504 -0.295786
v 0.192098 0.547997 -0.214792
v 0.400935 0.968504 0.057238
v 0.263835 0.547997 -0.016011
v 0.269859 1.008958 0.306202
v 0.190199 0.591908 0.137724
v -0.058953 0.968504 0.474622
v 0.005052 0.531641 0.276734
v -0.328264 0.971535 0.281512
v -0.188094 0.501814 0.160634
v -0.453024 0.968504 -0.058539
v -0.287801 0.547997 0.003488
v -0.296200 0.968504 -0.377652
v -0.211174 0.547997 -0.201004
v -0.043766 -0.006575 0.004683
v 0.004683 -0.006575 0.043766
v -0.004683 -0.006575 -0.043766
v 0.043766 -0.006575 -0.004683
v 0.420688 1.400748 -0.509036
v -0.000000 1.400748 -0.667829
v 0.582486 1.400748 0.000000
v 0.420688 1.400748 0.509036
v -0.000000 1.400748 0.658728
v -0.366604 1.400748 0.509036
v -0.594943 1.400748 -0.000000
v -0.386708 1.400748 -0.509036
vt 1.000000 0.833333
vt 1.000000 1.000000
vt 0.875000 1.000000
vt 0.875000 0.833333
vt 0.750000 1.000000
vt 0.750000 0.833333
vt 0.625000 1.000000
vt 0.625000 0.833333
vt 0.500000 1.000000
vt 0.500000 0.833333
vt 0.375000 1.000000
vt 0.375000 0.833333
vt 0.250000 1.000000
vt 0.250000 0.833333
vt 0.125000 1.000000
vt 0.125000 0.833333
vt 0.000000 1.000000
vt 0.000000 0.833333
vt 0.750000 0.490000
vt 0.700294 0.370000
vt 0.580294 0.419706
vt 0.125000 0.500000
vt 0.125000 0.666667
vt 0.000000 0.666667
vt 0.000000 0.500000
vt 0.250000 0.500000
vt 0.250000 0.666667
vt 0.375000 0.500000
vt 0.375000 0.666667
vt 0.500000 0.500000
vt 0.500000 0.666667
vt 0.625000 0.500000
vt 0.625000 0.666667
vt 0.750000 0.500000
vt 0.750000 0.666667
vt 0.875000 0.500000
vt 0.875000 0.666667
vt 1.000000 0.500000
vt 1.000000 0.666667
vt 0.510000 0.250000
vt 0.630000 0.200294
vt 0.580294 0.080294
vt 0.870000 0.299706
vt 0.799706 0.130000
vt 0.750000 0.010000
vt 0.990000 0.250000
vt 0.919706 0.080294
vt 0.919706 0.419706
vt 0.500000 1.000000
vt 0.375000 1.000000
vt 0.419706 0.419706
vt 0.250000 0.490000
vt 0.080294 0.419706
vt 0.010000 0.250000
vt 0.080294 0.080294
vt 0.250000 0.010000
vt 0.419706 0.080294
vt 0.490000 0.250000
vt 0.125000 1.000000
vt 0.000000 1.000000
vt 1.000000 1.000000
vt 0.875000 1.000000
vt 0.750000 1.000000
vt 0.625000 1.000000
vt 0.250000 1.000000
vn 0.4074 -0.4527 -0.7931
vn 0.9059 -0.3641 -0.2163
vn 0.8127 -0.4633 0.3533
vn 0.3887 -0.5582 0.7330
vn -0.4523 -0.4688 0.7587
vn -0.8646 -0.3845 0.3234
vn -0.8694 -0.3349 -0.3633
vn -0.3300 -0.4570 -0.8260
vn -0.5281 -0.4551 -0.7169
vn -0.3451 -0.3134 -0.8847
vn -0.2163 -0.4340 -0.8746
vn -0.8991 -0.3463 -0.2678
vn -0.8517 -0.3612 -0.3797
vn -0.8143 -0.3162 0.4867
vn -0.8726 -0.3235 0.3659
vn -0.3576 -0.3083 0.8815
vn -0.4974 -0.3853 0.7773
vn 0.6142 -0.2328 0.7541
vn 0.5308 -0.3424 0.7753
vn 0.8984 -0.2610 0.3532
vn 0.8046 -0.3473 0.4818
vn 0.8546 -0.3231 -0.4066
vn 0.9215 -0.3531 -0.1615
vn 0.1544 -0.2885 -0.9450
vn 0.3274 -0.4202 -0.8463
vn -0.7185 -0.4514 0.5292
vn 0.0000 -1.0000 0.0000
vn -0.2948 -0.4736 0.8300
vn 0.8299 -0.4738 0.2948
vn 0.5299 -0.4491 0.7194
vn 0.2940 -0.4780 -0.8277
vn -0.8278 -0.4778 -0.2940
vn 0.7179 -0.4528 -0.5288
vn -0.2573 0.7721 0.5811
vn 0.0000 1.0000 0.0000
vn -0.2779 0.7445 -0.6070
vn 0.3495 0.5374 -0.7675
vn 0.9171 0.2422 0.3168
vn -0.8245 0.4748 0.3079
vn 0.3429 0.5296 0.7759
vn -0.8902 0.3221 -0.3222
vn 0.9132 0.2597 -0.3141
usemtl Dirt
s off
f 18/1/1 2/2/1 4/3/1 19/4/1
f 19/4/2 4/3/2 6/5/2 21/6/2
f 21/6/3 6/5/3 8/7/3 23/8/3
f 23/8/4 8/7/4 10/9/4 25/10/4
f 25/10/5 10/9/5 12/11/5 27/12/5
f 27/12/6 12/11/6 14/13/6 29/14/6
f 29/14/7 14/13/7 16/15/7 31/16/7
f 31/16/8 16/15/8 2/17/8 18/18/8
f 1/19/9 35/20/9 15/21/9
f 15/22/10 32/23/10 17/24/10 1/25/10
f 32/23/11 31/16/11 18/18/11 17/24/11
f 13/26/12 30/27/12 32/23/12 15/22/12
f 30/27/13 29/14/13 31/16/13 32/23/13
f 11/28/14 28/29/14 30/27/14 13/26/14
f 28/29/15 27/12/15 29/14/15 30/27/15
f 9/30/16 26/31/16 28/29/16 11/28/16
f 26/31/17 25/10/17 27/12/17 28/29/17
f 7/32/18 24/33/18 26/31/18 9/30/18
f 24/33/19 23/8/19 25/10/19 26/31/19
f 5/34/20 22/35/20 24/33/20 7/32/20
f 22/35/21 21/6/21 23/8/21 24/33/21
f 3/36/22 20/37/22 22/35/22 5/34/22
f 20/37/23 19/4/23 21/6/23 22/35/23
f 1/38/24 17/39/24 20/37/24 3/36/24
f 17/39/25 18/1/25 19/4/25 20/37/25
f 13/40/26 33/41/26 11/42/26
f 33/41/27 35/20/27 36/43/27 34/44/27
f 11/42/28 33/41/28 34/44/28 9/45/28
f 34/44/29 36/43/29 5/46/29 7/47/29
f 9/45/30 34/44/30 7/47/30
f 36/43/31 35/20/31 1/19/31 3/48/31
f 15/21/32 35/20/32 33/41/32 13/40/32
f 5/46/33 36/43/33 3/48/33
usemtl Grass
f 12/11/34 10/9/34 41/49/34 42/50/34
f 37/51/35 38/52/35 44/53/35 43/54/35 42/55/35 41/56/35 40/57/35 39/58/35
f 2/17/36 16/15/36 44/59/36 38/60/36
f 4/3/37 2/2/37 38/61/37 37/62/37
f 8/7/38 6/5/38 39/63/38 40/64/38
f 14/13/39 12/11/39 42/50/39 43/65/39
f 10/9/40 8/7/40 40/64/40 41/49/40
f 16/15/41 14/13/41 43/65/41 44/59/41
f 6/5/42 4/3/42 37/62/42 39/63/42
