# Blender v2.93.0 OBJ File: 'Island02.blend'
# www.blender.org
mtllib Island02.mtl
o Cylinder
v -0.078943 0.260975 -0.319607
v -0.000000 1.476039 -0.719886
v 0.170175 0.260975 -0.281817
v 0.420688 1.456827 -0.509036
v 0.319607 0.260975 -0.078943
v 0.605939 1.467907 0.000000
v 0.281817 0.260975 0.170175
v 0.420688 1.450490 0.509036
v 0.078943 0.260975 0.319607
v -0.000000 1.467114 0.719886
v -0.170175 0.260975 0.281817
v -0.420688 1.476039 0.509036
v -0.319607 0.260975 0.078943
v -0.594943 1.419379 -0.000000
v -0.281817 0.260975 -0.170175
v -0.420688 1.476039 -0.509036
v -0.022875 0.773708 -0.467411
v 0.069166 1.070257 -0.570085
v 0.452916 1.070257 -0.353461
v 0.347244 0.665996 -0.371829
v 0.482978 1.070257 0.071068
v 0.475158 0.665996 -0.017384
v 0.325352 1.118906 0.370460
v 0.343858 0.744293 0.256741
v -0.070062 1.070257 0.572993
v 0.013723 0.636832 0.504608
v -0.393921 1.073902 0.340769
v -0.330675 0.583647 0.297591
v -0.543951 1.070257 -0.068160
v -0.508462 0.665996 0.017384
v -0.355363 1.070257 -0.451910
v -0.371829 0.665996 -0.347244
v -0.072998 0.005058 0.007811
v 0.007811 0.005058 0.072998
v -0.007811 0.005058 -0.072998
v 0.072998 0.005058 -0.007811
v 0.420688 1.503603 -0.509036
v -0.000000 1.503603 -0.686819
v 0.573314 1.503603 0.000000
v 0.401740 1.503603 0.509036
v 0.024393 1.503603 0.692636
v -0.420688 1.503603 0.509036
v -0.583576 1.503603 -0.000000
v -0.420688 1.503603 -0.509036
vt 1.000000 0.833333
vt 1.000000 1.000000
vt 0.875000 1.000000
vt 0.875000 0.833333
vt 0.750000 1.000000
vt 0.750000 0.833333
vt 0.625000 1.000000
vt 0.625000 0.833333
vt 0.500000 1.000000
vt 0.500000 0.833333
vt 0.375000 1.000000
vt 0.375000 0.833333
vt 0.250000 1.000000
vt 0.250000 0.833333
vt 0.125000 1.000000
vt 0.125000 0.833333
vt 0.000000 1.000000
vt 0.000000 0.833333
vt 0.750000 0.490000
vt 0.700294 0.370000
vt 0.580294 0.419706
vt 0.125000 0.500000
vt 0.125000 0.666667
vt 0.000000 0.666667
vt 0.000000 0.500000
vt 0.250000 0.500000
vt 0.250000 0.666667
vt 0.375000 0.500000
vt 0.375000 0.666667
vt 0.500000 0.500000
vt 0.500000 0.666667
vt 0.625000 0.500000
vt 0.625000 0.666667
vt 0.750000 0.500000
vt 0.750000 0.666667
vt 0.875000 0.500000
vt 0.875000 0.666667
vt 1.000000 0.500000
vt 1.000000 0.666667
vt 0.510000 0.250000
vt 0.630000 0.200294
vt 0.580294 0.080294
vt 0.870000 0.299706
vt 0.799706 0.130000
vt 0.750000 0.010000
vt 0.990000 0.250000
vt 0.919706 0.080294
vt 0.919706 0.419706
vt 0.500000 1.000000
vt 0.375000 1.000000
vt 0.419706 0.419706
vt 0.250000 0.490000
vt 0.080294 0.419706
vt 0.010000 0.250000
vt 0.080294 0.080294
vt 0.250000 0.010000
vt 0.419706 0.080294
vt 0.490000 0.250000
vt 0.125000 1.000000
vt 0.000000 1.000000
vt 1.000000 1.000000
vt 0.875000 1.000000
vt 0.750000 1.000000
vt 0.625000 1.000000
vt 0.250000 1.000000
vn 0.4466 -0.2714 -0.8526
vn 0.9599 -0.1744 -0.2193
vn 0.8748 -0.2973 0.3825
vn 0.4245 -0.4123 0.8061
vn -0.4921 -0.2962 0.8186
vn -0.9193 -0.2015 0.3380
vn -0.9149 -0.1354 -0.3804
vn -0.3477 -0.2853 -0.8931
vn -0.4320 -0.6852 -0.5865
vn -0.3639 -0.3228 -0.8737
vn -0.2557 -0.2377 -0.9371
vn -0.8895 -0.3807 -0.2528
vn -0.9111 -0.1146 -0.3959
vn -0.8012 -0.3543 0.4823
vn -0.9037 -0.0798 0.4207
vn -0.3286 -0.3574 0.8742
vn -0.5303 -0.1844 0.8275
vn 0.6109 -0.2366 0.7556
vn 0.5420 -0.1189 0.8319
vn 0.9016 -0.2763 0.3327
vn 0.8778 -0.1090 0.4664
vn 0.8360 -0.3579 -0.4160
vn 0.9740 -0.1106 -0.1975
vn 0.1543 -0.2844 -0.9462
vn 0.3487 -0.2083 -0.9138
vn -0.5865 -0.6852 0.4320
vn 0.0000 -1.0000 0.0000
vn -0.2121 -0.7021 0.6797
vn 0.6797 -0.7021 0.2121
vn 0.4320 -0.6852 0.5865
vn 0.2121 -0.7021 -0.6797
vn -0.6797 -0.7021 -0.2121
vn 0.5865 -0.6852 -0.4320
vn -0.3601 0.4780 0.8012
vn 0.0000 1.0000 0.0000
vn -0.3683 0.4782 -0.7973
vn 0.3960 0.3732 -0.8390
vn 0.8256 0.4794 0.2976
vn -0.9465 0.0962 0.3081
vn 0.4344 0.2378 0.8688
vn -0.9465 0.0962 -0.3081
vn 0.8875 0.3511 -0.2984
usemtl Dirt
s off
f 18/1/1 2/2/1 4/3/1 19/4/1
f 19/4/2 4/3/2 6/5/2 21/6/2
f 21/6/3 6/5/3 8/7/3 23/8/3
f 23/8/4 8/7/4 10/9/4 25/10/4
f 25/10/5 10/9/5 12/11/5 27/12/5
f 27/12/6 12/11/6 14/13/6 29/14/6
f 29/14/7 14/13/7 16/15/7 31/16/7
f 31/16/8 16/15/8 2/17/8 18/18/8
f 1/19/9 35/20/9 15/21/9
f 15/22/10 32/23/10 17/24/10 1/25/10
f 32/23/11 31/16/11 18/18/11 17/24/11
f 13/26/12 30/27/12 32/23/12 15/22/12
f 30/27/13 29/14/13 31/16/13 32/23/13
f 11/28/14 28/29/14 30/27/14 13/26/14
f 28/29/15 27/12/15 29/14/15 30/27/15
f 9/30/16 26/31/16 28/29/16 11/28/16
f 26/31/17 25/10/17 27/12/17 28/29/17
f 7/32/18 24/33/18 26/31/18 9/30/18
f 24/33/19 23/8/19 25/10/19 26/31/19
f 5/34/20 22/35/20 24/33/20 7/32/20
f 22/35/21 21/6/21 23/8/21 24/33/21
f 3/36/22 20/37/22 22/35/22 5/34/22
f 20/37/23 19/4/23 21/6/23 22/35/23
f 1/38/24 17/39/24 20/37/24 3/36/24
f 17/39/25 18/1/25 19/4/25 20/37/25
f 13/40/26 33/41/26 11/42/26
f 33/41/27 35/20/27 36/43/27 34/44/27
f 11/42/28 33/41/28 34/44/28 9/45/28
f 34/44/29 36/43/29 5/46/29 7/47/29
f 9/45/30 34/44/30 7/47/30
f 36/43/31 35/20/31 1/19/31 3/48/31
f 15/21/32 35/20/32 33/41/32 13/40/32
f 5/46/33 36/43/33 3/48/33
usemtl Grass
f 12/11/34 10/9/34 41/49/34 42/50/34
f 37/51/35 38/52/35 44/53/35 43/54/35 42/55/35 41/56/35 40/57/35 39/58/35
f 2/17/36 16/15/36 44/59/36 38/60/36
f 4/3/37 2/2/37 38/61/37 37/62/37
f 8/7/38 6/5/38 39/63/38 40/64/38
f 14/13/39 12/11/39 42/50/39 43/65/39
f 10/9/40 8/7/40 40/64/40 41/49/40
f 16/15/41 14/13/41 43/65/41 44/59/41
f 6/5/42 4/3/42 37/62/42 39/63/42
